<svg width="730" height="278" viewBox="0 0 730 278" fill="none" xmlns="http://www.w3.org/2000/svg">
<path d="M129.3 218.7C111.9 218.7 100.8 207.3 96 184.5L89.1 151.2C86.9 140.4 84.4 132.2 81.6 126.6C79 121 75.3 117.2 70.5 115.2C65.9 113.2 59.5 112.2 51.3 112.2C48.5 112.2 46.3 113 44.7 114.6C43.1 116 42.3 117.8 42.3 120V195C42.3 199.2 43.1 202.1 44.7 203.7C46.3 205.1 49.9 206.3 55.5 207.3L66.6 209.1C68.8 209.5 69.9 210.6 69.9 212.4C69.9 214.8 68.4 216 65.4 216H4.5C1.5 216 0 214.9 0 212.7C0 210.9 1.3 209.7 3.9 209.1L10.8 207.9C15 207.1 17.7 206 18.9 204.6C20.3 203.2 21 200.4 21 196.2V19.8C21 15.6 20.3 12.8 18.9 11.4C17.7 10 15 8.9 10.8 8.1L3.9 6.9C1.3 6.3 0 5.09999 0 3.29999C0 1.1 1.5 0 4.5 0H65.4C77.2 0 87.7 2.3 96.9 6.9C106.1 11.5 113.3 17.9 118.5 26.1C123.7 34.1 126.3 43.4 126.3 54C126.3 66.6 122.5 78 114.9 88.2C107.3 98.2 97.7 105.3 86.1 109.5C84.7 109.9 83.9 110.6 83.7 111.6C83.7 112.4 84.4 113.1 85.8 113.7C92.2 116.7 97.2 120.9 100.8 126.3C104.6 131.7 107.5 138.9 109.5 147.9L116.1 178.5C118.3 188.9 120.9 196.3 123.9 200.7C126.9 205.1 130.7 207.3 135.3 207.3C136.9 207.3 138.3 207.1 139.5 206.7C140.9 206.1 142.6 205.1 144.6 203.7C146.2 202.7 147.7 202.5 149.1 203.1C150.5 203.5 151.2 204.5 151.2 206.1C151.2 209.5 149 212.5 144.6 215.1C140.2 217.5 135.1 218.7 129.3 218.7ZM62.4 104.7C76 104.7 86.3 100.2 93.3 91.2C100.3 82 103.8 69.8 103.8 54.6C103.8 39.8 99.7 28.3 91.5 20.1C83.5 11.7 72.4 7.49999 58.2 7.49999C47.6 7.49999 42.3 11.5 42.3 19.5V88.2C42.3 99.2 49 104.7 62.4 104.7Z" fill="black"/>
<path d="M198.384 218.7C188.784 218.7 180.184 215.5 172.584 209.1C164.984 202.7 158.884 193.7 154.284 182.1C149.884 170.3 147.684 156.7 147.684 141.3C147.684 125.5 149.984 111.6 154.584 99.6C159.184 87.6 165.484 78.2 173.484 71.4C181.484 64.6 190.384 61.2 200.184 61.2C211.984 61.2 221.484 66.1 228.684 75.9C236.084 85.5 239.784 101.2 239.784 123C239.784 129.6 237.284 132.9 232.284 132.9H175.284C171.284 132.9 169.284 135.2 169.284 139.8C169.284 161 172.384 176.9 178.584 187.5C184.784 198.1 192.684 203.4 202.284 203.4C209.884 203.4 216.084 200.7 220.884 195.3C225.684 189.9 229.584 180.8 232.584 168C233.184 165.8 234.484 164.7 236.484 164.7C238.884 164.7 239.784 166.7 239.184 170.7C235.984 188.5 230.884 201 223.884 208.2C216.884 215.2 208.384 218.7 198.384 218.7ZM174.384 125.4H204.684C214.284 125.4 219.084 120.4 219.084 110.4C219.084 97.4 217.484 87.2 214.284 79.8C211.084 72.4 206.284 68.7 199.884 68.7C192.084 68.7 185.484 73.2 180.084 82.2C174.884 91.2 171.484 104 169.884 120.6C169.484 123.8 170.984 125.4 174.384 125.4Z" fill="black"/>
<path d="M301.425 218.7C292.625 218.7 284.625 215.8 277.425 210C270.425 204 264.825 195.5 260.625 184.5C256.425 173.5 254.325 160.4 254.325 145.2C254.325 128.2 256.825 113.4 261.825 100.8C267.025 88.2 274.025 78.5 282.825 71.7C291.625 64.7 301.425 61.2 312.225 61.2C321.425 61.2 328.625 63 333.825 66.6C335.825 68 336.825 70.2 336.825 73.2L337.425 109.8C337.425 112.8 336.225 114.3 333.825 114.3C331.625 114.3 330.225 113 329.625 110.4C326.825 99.4 324.125 90.9 321.525 84.9C318.925 78.9 316.225 74.8 313.425 72.6C310.625 70.2 307.525 69 304.125 69C300.125 69 295.925 71.3 291.525 75.9C287.325 80.5 283.725 88 280.725 98.4C277.925 108.6 276.525 122.1 276.525 138.9C276.525 160.3 279.225 176.4 284.625 187.2C290.225 198 297.425 203.4 306.225 203.4C313.225 203.4 319.025 200.5 323.625 194.7C328.425 188.9 332.525 178.4 335.925 163.2C336.525 161 337.725 159.9 339.525 159.9C341.925 159.9 342.825 161.9 342.225 165.9C340.025 179.9 336.925 190.8 332.925 198.6C329.125 206.2 324.525 211.5 319.125 214.5C313.925 217.3 308.025 218.7 301.425 218.7Z" fill="black"/>
<path d="M406.685 218.7C397.085 218.7 388.485 215.5 380.885 209.1C373.285 202.7 367.185 193.7 362.585 182.1C358.185 170.3 355.985 156.7 355.985 141.3C355.985 125.5 358.285 111.6 362.885 99.6C367.485 87.6 373.785 78.2 381.785 71.4C389.785 64.6 398.685 61.2 408.485 61.2C420.285 61.2 429.785 66.1 436.985 75.9C444.385 85.5 448.085 101.2 448.085 123C448.085 129.6 445.585 132.9 440.585 132.9H383.585C379.585 132.9 377.585 135.2 377.585 139.8C377.585 161 380.685 176.9 386.885 187.5C393.085 198.1 400.985 203.4 410.585 203.4C418.185 203.4 424.385 200.7 429.185 195.3C433.985 189.9 437.885 180.8 440.885 168C441.485 165.8 442.785 164.7 444.785 164.7C447.185 164.7 448.085 166.7 447.485 170.7C444.285 188.5 439.185 201 432.185 208.2C425.185 215.2 416.685 218.7 406.685 218.7ZM382.685 125.4H412.985C422.585 125.4 427.385 120.4 427.385 110.4C427.385 97.4 425.785 87.2 422.585 79.8C419.385 72.4 414.585 68.7 408.185 68.7C400.385 68.7 393.785 73.2 388.385 82.2C383.185 91.2 379.785 104 378.185 120.6C377.785 123.8 379.285 125.4 382.685 125.4Z" fill="black"/>
<path d="M489.926 34.5C485.726 34.5 482.126 33 479.126 30C476.326 27 474.926 23.2 474.926 18.6C474.926 14 476.326 10.3 479.126 7.49999C482.126 4.5 485.726 3 489.926 3C494.126 3 497.626 4.5 500.426 7.49999C503.226 10.3 504.626 14 504.626 18.6C504.626 23.2 503.226 27 500.426 30C497.626 33 494.126 34.5 489.926 34.5ZM464.726 216C461.726 216 460.226 214.9 460.226 212.7C460.226 210.9 461.526 209.7 464.126 209.1L467.726 208.5C472.726 207.7 475.926 206.5 477.326 204.9C478.726 203.1 479.426 200.1 479.426 195.9V95.1C479.426 91.5 478.826 89.1 477.626 87.9C476.626 86.5 474.726 85.6 471.926 85.2L465.626 84.3C463.026 84.1 461.726 83 461.726 81C461.726 79.4 463.326 78.3 466.526 77.7C472.726 76.7 477.726 75.1 481.526 72.9C485.326 70.7 489.026 68 492.626 64.8C494.426 63 495.926 62.1 497.126 62.1C498.926 62.1 499.826 63.3 499.826 65.7V195.9C499.826 200.1 500.426 203.1 501.626 204.9C502.826 206.7 505.126 207.8 508.526 208.2L516.026 209.1C518.226 209.5 519.326 210.6 519.326 212.4C519.326 214.8 517.826 216 514.826 216H464.726Z" fill="black"/>
<path d="M530.623 277.5C527.623 277.5 526.123 276.4 526.123 274.2C526.123 272 527.423 270.8 530.023 270.6L534.223 270C538.423 269.4 541.123 268.2 542.323 266.4C543.723 264.6 544.423 261.6 544.423 257.4V95.1C544.423 91.5 543.823 89.1 542.623 87.9C541.623 86.5 539.723 85.6 536.923 85.2L530.623 84.3C528.023 84.1 526.723 83 526.723 81C526.723 79.4 528.323 78.3 531.523 77.7C537.723 76.7 542.423 75.1 545.623 72.9C549.023 70.7 552.523 68 556.123 64.8C557.923 63 559.423 62.1 560.623 62.1C562.423 62.1 563.323 63.3 563.323 65.7V75C563.323 76.4 563.923 77.4 565.123 78C566.323 78.4 567.723 77.8 569.323 76.2L572.623 72.9C576.623 68.9 580.723 66 584.923 64.2C589.123 62.2 593.923 61.2 599.323 61.2C608.523 61.2 616.623 64.3 623.623 70.5C630.823 76.5 636.423 84.9 640.423 95.7C644.623 106.5 646.723 119.2 646.723 133.8C646.723 150.4 644.123 165.1 638.923 177.9C633.723 190.7 626.523 200.7 617.323 207.9C608.323 215.1 597.923 218.7 586.123 218.7C580.123 218.7 574.823 217.6 570.223 215.4C566.623 213.8 564.823 214.9 564.823 218.7V257.4C564.823 261.6 565.423 264.4 566.623 265.8C568.023 267.4 570.823 268.5 575.023 269.1L586.123 270.6C588.323 271 589.423 272.1 589.423 273.9C589.423 276.3 587.923 277.5 584.923 277.5H530.623ZM587.023 211.2C598.223 211.2 607.223 204.6 614.023 191.4C621.023 178.2 624.523 160.4 624.523 138C624.523 117.4 621.523 101.7 615.523 90.9C609.523 80.1 601.023 74.7 590.023 74.7C583.223 74.7 577.323 77.5 572.323 83.1C567.323 88.7 564.823 96.5 564.823 106.5V182.1C564.823 191.1 566.823 198.2 570.823 203.4C575.023 208.6 580.423 211.2 587.023 211.2Z" fill="black"/>
<path d="M699.923 218.7C692.923 218.7 687.123 216.3 682.523 211.5C678.123 206.5 675.923 198.4 675.923 187.2V75C675.923 72.6 674.723 71.4 672.323 71.4H663.623C660.423 71.4 658.823 70.2 658.823 67.8C658.823 66.2 659.723 64.8 661.523 63.6C668.123 59 673.423 54.1 677.423 48.9C681.423 43.5 684.923 36.2 687.923 27C689.323 22.8 691.023 20.7 693.023 20.7C695.223 20.7 696.323 22.3 696.323 25.5V58.8C696.323 61.6 697.723 63 700.523 63H720.023C723.223 63 724.823 64.4 724.823 67.2C724.823 70 723.223 71.4 720.023 71.4H700.523C697.723 71.4 696.323 72.8 696.323 75.6V187.5C696.323 191.9 697.023 195.4 698.423 198C699.823 200.4 702.423 201.6 706.223 201.6C710.423 201.6 713.823 199.5 716.423 195.3C719.223 191.1 721.023 184.3 721.823 174.9C722.223 172.1 723.523 170.7 725.723 170.7C728.123 170.7 729.323 172.2 729.323 175.2C728.723 190.6 725.523 201.7 719.723 208.5C714.123 215.3 707.523 218.7 699.923 218.7Z" fill="black"/>
</svg>
