<svg width="1245" height="281" viewBox="0 0 1245 281" fill="none" xmlns="http://www.w3.org/2000/svg">
<path d="M308.035 219.034V55.3977H326.466V80.5398H327.851C331.118 72.3011 336.8 65.6605 344.896 60.6179C353.064 55.5043 362.297 52.9474 372.595 52.9474C374.158 52.9474 375.898 52.983 377.815 53.054C379.733 53.125 381.331 53.196 382.609 53.2671V72.5497C381.757 72.4077 380.266 72.1946 378.135 71.9105C376.004 71.6264 373.696 71.4844 371.21 71.4844C362.687 71.4844 355.088 73.2955 348.412 76.9176C341.807 80.4688 336.587 85.4048 332.751 91.7259C328.916 98.0469 326.998 105.256 326.998 113.352V219.034H308.035Z" fill="black"/>
<path d="M476.146 222.443C460.876 222.443 447.666 218.892 436.516 211.79C425.365 204.616 416.736 194.709 410.628 182.067C404.591 169.354 401.572 154.723 401.572 138.175C401.572 121.697 404.591 107.067 410.628 94.2827C416.736 81.4276 425.152 71.3778 435.876 64.1335C446.672 56.8182 459.136 53.1605 473.27 53.1605C482.148 53.1605 490.706 54.794 498.944 58.0611C507.183 61.2571 514.569 66.1932 521.104 72.8693C527.709 79.4744 532.929 87.8196 536.764 97.9048C540.599 107.919 542.517 119.78 542.517 133.487V142.862H414.676V126.136H523.128C523.128 115.625 520.997 106.179 516.736 97.7983C512.545 89.3466 506.686 82.6705 499.158 77.7699C491.7 72.8693 483.071 70.419 473.27 70.419C462.9 70.419 453.774 73.1889 445.891 78.7287C438.007 84.2685 431.828 91.5838 427.354 100.675C422.95 109.766 420.713 119.709 420.642 130.504V140.518C420.642 153.516 422.879 164.879 427.354 174.609C431.899 184.268 438.327 191.761 446.636 197.088C454.946 202.415 464.783 205.078 476.146 205.078C483.888 205.078 490.67 203.871 496.494 201.456C502.389 199.041 507.325 195.81 511.302 191.761C515.351 187.642 518.405 183.132 520.464 178.232L538.469 184.091C535.983 190.98 531.899 197.337 526.217 203.161C520.606 208.984 513.575 213.672 505.123 217.223C496.743 220.703 487.084 222.443 476.146 222.443Z" fill="black"/>
<path d="M648.225 222.443C633.595 222.443 620.846 218.786 609.98 211.47C599.184 204.155 590.803 194.141 584.838 181.428C578.872 168.715 575.889 154.226 575.889 137.962C575.889 121.555 578.907 106.96 584.944 94.1761C591.052 81.3921 599.504 71.3778 610.299 64.1335C621.095 56.8182 633.63 53.1605 647.906 53.1605C658.843 53.1605 668.751 55.2912 677.629 59.5526C686.507 63.7429 693.822 69.6733 699.575 77.3438C705.399 84.9432 709.056 93.821 710.548 103.977H691.372C689.383 94.7443 684.589 86.8608 676.99 80.3267C669.461 73.7216 659.873 70.419 648.225 70.419C637.785 70.419 628.552 73.26 620.526 78.9418C612.501 84.5526 606.215 92.4006 601.67 102.486C597.196 112.5 594.958 124.112 594.958 137.322C594.958 150.604 597.16 162.358 601.563 172.585C605.967 182.741 612.146 190.696 620.1 196.449C628.126 202.202 637.501 205.078 648.225 205.078C655.47 205.078 662.075 203.729 668.041 201.03C674.078 198.26 679.12 194.354 683.169 189.311C687.288 184.268 690.058 178.267 691.478 171.307H710.654C709.234 181.179 705.718 189.986 700.107 197.727C694.568 205.398 687.359 211.435 678.481 215.838C669.674 220.241 659.589 222.443 648.225 222.443Z" fill="black"/>
<path d="M817.455 222.443C802.185 222.443 788.975 218.892 777.824 211.79C766.674 204.616 758.044 194.709 751.936 182.067C745.899 169.354 742.881 154.723 742.881 138.175C742.881 121.697 745.899 107.067 751.936 94.2827C758.044 81.4276 766.461 71.3778 777.185 64.1335C787.98 56.8182 800.445 53.1605 814.578 53.1605C823.456 53.1605 832.014 54.794 840.253 58.0611C848.492 61.2571 855.878 66.1932 862.412 72.8693C869.017 79.4744 874.237 87.8196 878.073 97.9048C881.908 107.919 883.826 119.78 883.826 133.487V142.862H755.985V126.136H864.436C864.436 115.625 862.306 106.179 858.044 97.7983C853.854 89.3466 847.995 82.6705 840.466 77.7699C833.009 72.8693 824.38 70.419 814.578 70.419C804.209 70.419 795.083 73.1889 787.199 78.7287C779.316 84.2685 773.137 91.5838 768.662 100.675C764.259 109.766 762.022 119.709 761.951 130.504V140.518C761.951 153.516 764.188 164.879 768.662 174.609C773.208 184.268 779.635 191.761 787.945 197.088C796.254 202.415 806.091 205.078 817.455 205.078C825.196 205.078 831.979 203.871 837.803 201.456C843.698 199.041 848.634 195.81 852.611 191.761C856.659 187.642 859.713 183.132 861.773 178.232L879.777 184.091C877.291 190.98 873.208 197.337 867.526 203.161C861.915 208.984 854.884 213.672 846.432 217.223C838.051 220.703 828.392 222.443 817.455 222.443Z" fill="black"/>
<path d="M925.827 219.034V55.3977H944.896V219.034H925.827ZM935.521 27.2727C931.615 27.2727 928.277 25.9588 925.507 23.331C922.737 20.6321 921.352 17.4006 921.352 13.6364C921.352 9.87217 922.737 6.67615 925.507 4.04831C928.277 1.34944 931.615 0 935.521 0C939.427 0 942.766 1.34944 945.535 4.04831C948.305 6.67615 949.69 9.87217 949.69 13.6364C949.69 17.4006 948.305 20.6321 945.535 23.331C942.766 25.9588 939.427 27.2727 935.521 27.2727Z" fill="black"/>
<path d="M995.047 280.398V55.3977H1013.48V86.6122H1015.71C1017.99 81.7117 1021.11 76.7046 1025.09 71.5909C1029.07 66.4063 1034.32 62.0384 1040.86 58.4872C1047.46 54.9361 1055.77 53.1605 1065.79 53.1605C1079.28 53.1605 1091.07 56.7117 1101.16 63.8139C1111.31 70.8452 1119.19 80.7173 1124.81 93.4304C1130.49 106.072 1133.33 120.81 1133.33 137.642C1133.33 154.545 1130.49 169.354 1124.81 182.067C1119.19 194.78 1111.31 204.688 1101.16 211.79C1091.07 218.892 1079.35 222.443 1066 222.443C1056.13 222.443 1047.85 220.668 1041.18 217.116C1034.57 213.565 1029.21 209.197 1025.09 204.013C1021.04 198.757 1017.92 193.643 1015.71 188.672H1014.01V280.398H995.047ZM1013.8 137.322C1013.8 150.533 1015.75 162.251 1019.66 172.479C1023.63 182.635 1029.32 190.625 1036.7 196.449C1044.16 202.202 1053.18 205.078 1063.76 205.078C1074.63 205.078 1083.79 202.095 1091.25 196.129C1098.78 190.092 1104.49 181.96 1108.4 171.733C1112.38 161.506 1114.37 150.036 1114.37 137.322C1114.37 124.751 1112.41 113.423 1108.51 103.338C1104.67 93.2529 1098.99 85.2628 1091.46 79.3679C1083.93 73.402 1074.7 70.419 1063.76 70.419C1053.11 70.419 1044.05 73.2955 1036.6 79.0483C1029.14 84.7301 1023.46 92.6136 1019.55 102.699C1015.71 112.713 1013.8 124.254 1013.8 137.322Z" fill="black"/>
<path d="M1239.38 55.3977V71.9105H1161.29V55.3977H1239.38ZM1185.69 16.1932H1204.76V176.314C1204.76 183.132 1205.93 188.494 1208.28 192.401C1210.62 196.236 1213.67 198.97 1217.44 200.604C1221.2 202.166 1225.21 202.947 1229.48 202.947C1231.96 202.947 1234.09 202.805 1235.87 202.521C1237.64 202.166 1239.21 201.811 1240.55 201.456L1244.6 218.608C1242.76 219.318 1240.48 219.957 1237.79 220.526C1235.09 221.165 1231.75 221.484 1227.77 221.484C1220.81 221.484 1214.1 219.957 1207.64 216.903C1201.24 213.849 1195.99 209.304 1191.87 203.267C1187.75 197.23 1185.69 189.737 1185.69 180.788V16.1932Z" fill="black"/>
<path fill-rule="evenodd" clip-rule="evenodd" d="M252.278 59.0341L96.4604 196.545L12.7401 122.652L0 133.897L96.4604 219.034L265 70.2628L252.278 59.0341Z" fill="black"/>
</svg>
